<svg width="63" height="40" viewBox="0 0 63 40" fill="none" xmlns="http://www.w3.org/2000/svg">
<g clip-path="url(#clip0_1781_22733)">
<path d="M10.2091 33.3533H8.24316V38.0199H10.2091V33.3533Z" fill="white"/>
<path d="M0 30.9933V39.7733H1.85261V32.2466L4.31165 39.7733H5.94434L7.49707 35.1066H5.92435L5.18464 37.3799L3.23207 30.9933H0Z" fill="white"/>
<path d="M15.7007 36.0866C15.7007 37.0733 15.7007 37.8867 14.5545 37.8867C13.6015 37.8867 13.6015 37.12 13.6015 36.6133V34.5667H11.8022V36.76C11.7637 37.3086 11.9015 37.8552 12.1954 38.32C12.4235 38.5749 12.7059 38.7754 13.0218 38.9067C13.3399 39.0411 13.6828 39.1069 14.028 39.1C14.3849 39.1083 14.7381 39.0257 15.0543 38.86C15.3726 38.7113 15.6461 38.4814 15.8473 38.1933L15.9073 38.96H17.6399C17.6399 38.8 17.6399 38.7 17.5933 38.54C17.5467 38.38 17.5933 38.24 17.5533 36.9933V34.5667H15.7007V36.0866Z" fill="white"/>
<path d="M17.6598 35.4C17.6598 36.5867 18.706 36.8733 19.1992 37.0067L20.3054 37.2933C20.9718 37.48 21.1451 37.6867 21.1451 37.96C21.1451 38.2333 20.8452 38.6267 20.2121 38.6267C19.4657 38.6267 19.2191 38.2067 19.1992 37.84H17.5265C17.5215 38.2616 17.6818 38.6684 17.973 38.9733C18.2551 39.2236 18.5843 39.4151 18.9413 39.5364C19.2984 39.6578 19.676 39.7066 20.0522 39.68C21.9447 39.68 22.8444 38.6867 22.8444 37.68C22.8444 36.8933 22.3313 36.3467 21.2184 36.0667L20.1255 35.78C19.5923 35.64 19.2925 35.56 19.2925 35.1733C19.2957 35.1557 19.2957 35.1376 19.2925 35.12H17.6798C17.6798 35.2067 17.6798 35.3 17.6798 35.3867" fill="white"/>
<path d="M26.7359 36.2534H24.5101C24.5186 35.9498 24.6108 35.6544 24.7767 35.4H23.084C22.8626 35.9109 22.7535 36.4633 22.7641 37.02C22.7358 37.4298 22.7902 37.8411 22.9242 38.2294C23.0582 38.6176 23.2689 38.975 23.5438 39.28C24.145 39.7781 24.9098 40.0347 25.6896 40C26.4571 40.055 27.2168 39.8168 27.8155 39.3334C28.1617 39.0022 28.3689 38.5518 28.3952 38.0734H26.7692C26.7273 38.3125 26.5963 38.5269 26.4027 38.6734C26.2111 38.8166 25.9751 38.8875 25.7363 38.8734C24.4968 38.8734 24.4968 37.7067 24.4968 37.3267H28.5752C28.634 36.6747 28.5428 36.0179 28.3086 35.4067H26.5093C26.6474 35.6695 26.7162 35.9632 26.7092 36.26" fill="white"/>
<path d="M32.1343 36.3733C32.1343 37.36 32.1343 38.1733 30.9948 38.1733C30.0418 38.1733 30.0418 37.4067 30.0418 36.9V34.86H28.2359V37.06C28.1969 37.6075 28.3373 38.1527 28.6357 38.6133C28.86 38.8695 29.1406 39.0703 29.4554 39.2C29.7726 39.3374 30.1161 39.4034 30.4616 39.3933C30.819 39.4081 31.1742 39.3324 31.4946 39.1733C31.8017 39.0214 32.0637 38.7915 32.2543 38.5067L32.3143 39.2733H34.0536C34.0536 39.1133 34.0136 39.0067 34.0003 38.8467C33.9869 38.6867 34.0003 38.5533 33.9669 37.3V34.86H32.1343V36.3733Z" fill="white"/>
<path d="M35.5928 38.1533H37.3854V34.7533C37.3588 34.4057 37.4529 34.0595 37.652 33.7733H35.5928V38.1533Z" fill="white"/>
<path d="M46.8014 35.3333V38.7333H48.5941V35.4666C48.5998 35.0933 48.5685 34.7204 48.5008 34.3533H46.5615C46.7469 34.6445 46.829 34.9897 46.7948 35.3333" fill="white"/>
<path d="M41.1709 35.0067V38.4467H42.9636V35.5267C42.9031 35.0119 43.0081 34.4911 43.2634 34.04H40.9443C41.1217 34.3295 41.2012 34.6685 41.1709 35.0067" fill="white"/>
<path d="M0.106445 12.0133V20.2866H5.53099V18.86H2.01237V12.0133H0.106445Z" fill="white"/>
<path d="M8.71703 17.8334C8.71703 17.1667 9.53671 16.8 10.6763 16.8934C10.6966 17.2692 10.6422 17.6454 10.5163 18H12.3556V15.8267C12.3828 15.3192 12.2345 14.8178 11.9358 14.4067C11.3407 13.8815 10.5621 13.6131 9.76995 13.66C9.1217 13.6347 8.48014 13.7992 7.92401 14.1334C7.70348 14.2869 7.52481 14.4932 7.40421 14.7334C7.28236 14.9792 7.22721 15.2528 7.24427 15.5267H8.99026C8.97712 15.3456 9.02396 15.1652 9.12354 15.0134C9.20109 14.9088 9.30441 14.8261 9.42342 14.7734C9.54115 14.7141 9.67151 14.6844 9.80327 14.6867C9.97007 14.681 10.1348 14.7251 10.2764 14.8134C10.4175 14.8977 10.5292 15.0234 10.5963 15.1734C10.6696 15.4219 10.6967 15.6817 10.6763 15.94C9.86154 15.8985 9.04611 16.007 8.27054 16.26C7.89692 16.3954 7.57211 16.6391 7.33757 16.96C7.10981 17.2717 6.9862 17.6473 6.98438 18.0334H8.73036C8.72707 17.9779 8.72707 17.9222 8.73036 17.8667" fill="white"/>
<path d="M15.4871 16.06C15.4661 15.7508 15.543 15.4429 15.707 15.18C15.8094 15.0363 15.9471 14.9215 16.1068 14.8466C16.2705 14.7666 16.4512 14.7277 16.6333 14.7333C16.81 14.7255 16.9854 14.7671 17.1398 14.8533C17.2928 14.9409 17.4176 15.0705 17.4996 15.2266C17.5806 15.425 17.6126 15.6399 17.5929 15.8533V17.8533H19.4122V16.3266C19.4645 15.7435 19.408 15.1558 19.2456 14.5933C19.0844 14.2447 18.8189 13.9548 18.4858 13.7637C18.1527 13.5726 17.7685 13.4898 17.3863 13.5266C16.9924 13.5 16.5986 13.5806 16.2468 13.76C15.9039 13.9371 15.6159 14.2045 15.4138 14.5333L15.3671 13.6666H13.6611C13.6945 14.0666 13.6945 14.6933 13.6945 14.72V17.8533H15.4871V16.06Z" fill="white"/>
<path d="M22.1047 17.48C22.1047 16.8934 22.238 15.5334 23.4376 15.5334C24.2439 15.5334 24.7704 16.1534 24.7704 17.2867C24.7881 17.7588 24.6897 18.2281 24.4838 18.6534V18.6534H26.5097V11.9867H24.6904V15.1867C24.4975 14.924 24.2406 14.7151 23.944 14.58C23.6438 14.4416 23.3146 14.3776 22.9844 14.3934C21.3917 14.3934 20.3188 15.5867 20.3188 17.5C20.3131 17.8877 20.3647 18.2741 20.4721 18.6467H22.3646C22.196 18.272 22.114 17.8641 22.1247 17.4534" fill="white"/>
<path d="M30.2617 14.48C31.2946 14.48 31.3213 15.5134 31.3213 15.78H29.1155C29.1555 15.1134 29.482 14.48 30.2617 14.48V14.48ZM29.0555 16.86H33.1339C33.205 16.1339 33.0807 15.402 32.7741 14.74C32.546 14.3017 32.1967 13.9384 31.7678 13.6934C31.3271 13.4463 30.8265 13.3263 30.3217 13.3467C29.7165 13.3382 29.1217 13.5049 28.609 13.8267C28.1821 14.1362 27.8416 14.5499 27.62 15.0284C27.3983 15.5069 27.3029 16.0342 27.3429 16.56C27.3415 16.947 27.3908 17.3325 27.4895 17.7067H29.1755C29.0828 17.4345 29.0421 17.1473 29.0555 16.86" fill="white"/>
<path d="M39.6976 17.9399C39.6976 17.1466 39.1845 16.6066 38.0783 16.3199L36.9787 16.0333C36.4456 15.8999 36.1457 15.8199 36.1457 15.4266C36.1457 15.0333 36.5055 14.8599 36.992 14.8599C37.0954 14.8398 37.2018 14.8398 37.3052 14.8599C37.4095 14.886 37.5071 14.9337 37.5918 14.9999C37.6722 15.0656 37.738 15.1474 37.785 15.2399C37.8253 15.3299 37.8436 15.4282 37.8384 15.5266H39.4644C39.4177 14.3666 38.4048 13.8199 37.152 13.8199C35.5726 13.8199 34.4863 14.4866 34.4863 15.6266C34.4863 16.7666 35.5326 17.0933 36.0257 17.2333L37.1719 17.5266C37.8384 17.6999 37.9916 17.8866 38.0116 18.1266H39.691C39.691 18.0599 39.691 17.9933 39.691 17.9266" fill="white"/>
<path d="M3.41894 6.91331C4.2986 6.91331 4.90503 6.75998 4.90503 5.80664C4.90503 4.85331 4.2986 4.71331 3.41894 4.71331H1.95951V6.90664L3.41894 6.91331ZM3.41894 3.33331C4.2053 3.33331 4.63847 3.02664 4.63847 2.35998C4.63847 1.69331 4.2053 1.38664 3.41894 1.38664H1.95951V3.33331H3.41894ZM0.0869141 8.28664V0.013311H3.35897C4.91169 -0.0800223 6.51773 0.533311 6.51773 2.15331C6.49653 2.58296 6.33416 2.99359 6.05581 3.32147C5.77746 3.64935 5.39871 3.87614 4.97833 3.96664V3.96664C5.50726 4.02448 5.99585 4.27684 6.34926 4.67474C6.70268 5.07265 6.89572 5.58771 6.89092 6.11998C6.89092 7.75998 4.7251 8.35998 3.38562 8.26664L0.0869141 8.28664Z" fill="white"/>
<path d="M8.7766 6.48664C8.77588 6.59617 8.79624 6.70481 8.83658 6.80664C8.88306 6.9092 8.94865 7.00197 9.02984 7.07997C9.11155 7.15957 9.20922 7.22092 9.31639 7.25997C9.42565 7.29767 9.54071 7.31573 9.65626 7.31331C10.6559 7.31331 10.6892 6.25997 10.6892 5.57997C10.0694 5.57997 8.7766 5.57997 8.7766 6.48664V6.48664ZM7.32384 4.19331C7.30416 3.90462 7.37148 3.61666 7.51709 3.36664C7.66551 3.11244 7.87958 2.90289 8.13685 2.75998C8.69289 2.49245 9.30639 2.36649 9.92282 2.39331C11.1357 2.39331 12.4951 2.81998 12.4951 4.54664V7.68664C12.4951 7.89997 12.5418 8.10664 12.5818 8.35331H10.9557C10.9169 8.07945 10.8968 7.80324 10.8958 7.52664V7.52664C10.712 7.83953 10.4411 8.09206 10.1161 8.25331C9.78421 8.41989 9.41349 8.4936 9.04316 8.46664C7.91027 8.46664 7.04395 7.85331 7.04395 6.72664C7.04562 6.33439 7.16904 5.95235 7.39714 5.63331C7.63015 5.30478 7.9546 5.05207 8.33011 4.90664C9.08765 4.64561 9.8898 4.53907 10.6892 4.59331V4.03997C10.6862 3.94094 10.6636 3.84349 10.6225 3.75331C10.5753 3.66662 10.5119 3.5897 10.436 3.52664C10.3576 3.45917 10.2671 3.40714 10.1694 3.37331C10.0679 3.35688 9.96437 3.35688 9.86284 3.37331C9.7526 3.37162 9.64336 3.39439 9.54297 3.43997C9.44106 3.48163 9.34825 3.54277 9.26974 3.61997C9.19591 3.69602 9.13912 3.78693 9.10314 3.88664C9.06453 3.98633 9.0486 4.09336 9.05649 4.19997L7.32384 4.19331Z" fill="white"/>
<path d="M16.1269 8.32661C17.1065 8.32661 17.4597 7.21328 17.4597 6.42661C17.4597 5.63995 17.1332 4.51994 16.1269 4.51994C14.974 4.51994 14.7941 5.53995 14.7941 6.42661C14.7941 7.31328 14.974 8.32661 16.1269 8.32661ZM17.4597 1.02661H19.259V8.15328C19.259 8.53328 19.299 8.91994 19.3256 9.29994H17.493C17.493 9.02661 17.4397 8.75994 17.4397 8.48661C17.2551 8.80385 16.9849 9.06262 16.66 9.23328C16.3285 9.40962 15.9554 9.49258 15.5804 9.47328C13.8145 9.47328 12.9814 7.89995 12.9814 6.42661C12.9814 4.95328 13.9344 3.37328 15.8137 3.37328C16.1297 3.38591 16.4391 3.46784 16.72 3.61328C16.9982 3.7566 17.2399 3.96186 17.4264 4.21328V4.21328L17.4597 1.02661Z" fill="white"/>
<path d="M21.5453 8.59999H23.3513V2.85999H21.5453V8.59999ZM21.4854 1.80666H23.4113V0.32666H21.4854V1.80666Z" fill="white"/>
<path d="M29.5488 3.43995C29.5488 3.04662 29.1356 2.87329 28.7291 2.87329C28.3226 2.87329 28.0027 3.01329 28.0027 3.39329C28.0027 4.29995 31.4614 3.77995 31.4614 5.93329C31.4614 7.19329 29.8487 7.82662 28.7291 7.82662C27.323 7.82662 26.0635 7.29995 26.0635 5.97995H27.7362C27.7362 6.43329 28.196 6.67995 28.7224 6.67995C29.2489 6.67995 29.5888 6.48662 29.5888 6.01329C29.5888 5.53995 28.7224 5.34662 28.3626 5.27995C27.203 5.01329 26.1368 4.77329 26.1368 3.43329C26.1368 2.23328 27.6628 1.69995 28.7224 1.69995C30.0019 1.69995 31.0815 2.13995 31.1681 3.41329L29.5488 3.43995Z" fill="white"/>
<path d="M35.9858 3.76C35.9858 3.29334 35.7726 2.72 35.0729 2.72C34.3731 2.72 34.2865 4.09334 34.2665 4.54C34.2465 4.98667 34.3265 6.54 35.0928 6.54C35.8592 6.54 35.9992 5.87334 36.0125 5.41334H37.7718C37.7052 6.88 36.7589 7.68 35.1062 7.68C33.3135 7.68 32.4072 6.16 32.4072 4.63334C32.4072 3.10667 33.3135 1.58667 35.1062 1.58667C36.6522 1.58667 37.7718 2.42 37.7718 3.77334L35.9858 3.76Z" fill="white"/>
<path d="M38.5049 8.44003V0.193359H40.3042V3.39336C40.5072 3.10439 40.7831 2.87437 41.1039 2.72669C41.4336 2.57647 41.7953 2.51006 42.1568 2.53336C42.7566 2.53336 43.9294 2.95336 44.156 3.79336C44.236 4.09346 44.2763 4.40277 44.276 4.71336V8.45336H42.5033V4.98003C42.5033 4.36669 42.3101 3.64669 41.4237 3.64669C40.8573 3.64669 40.3642 4.12669 40.3375 4.98003V8.44003H38.5049Z" fill="white"/>
<path d="M48.7679 4.40671C48.7679 3.78004 48.5813 3.19337 47.7083 3.19337C46.8353 3.19337 46.6953 3.77337 46.6687 4.40671H48.7679ZM46.6687 5.52671C46.6687 6.27337 46.782 6.96671 47.7083 6.96671C47.9519 7.00537 48.2012 6.95065 48.4063 6.81346C48.6113 6.67628 48.7571 6.46674 48.8145 6.22671H50.4405C50.2806 7.64671 49.1077 8.11337 47.7083 8.11337C45.6357 8.11337 44.8027 7.00671 44.8027 5.08004C44.8027 3.34671 45.8623 2.02004 47.7083 2.02004C48.2247 1.96902 48.7447 2.07225 49.2025 2.31668C49.6603 2.56111 50.0355 2.93578 50.2806 3.39337C50.4456 3.71549 50.5474 4.06626 50.5805 4.42671C50.6215 4.79187 50.6393 5.15928 50.6338 5.52671H46.6687Z" fill="white"/>
<path d="M54.8183 3.59332C54.8183 3.20665 54.4118 3.03332 54.0053 3.03332C53.5988 3.03332 53.2789 3.17332 53.2789 3.54665C53.2789 4.45332 56.7309 3.93998 56.7309 6.09332C56.7309 7.35332 55.1182 7.98665 53.9986 7.98665C52.5925 7.98665 51.333 7.45998 51.333 6.13998H53.0057C53.0457 6.58665 53.4655 6.83998 53.9986 6.83998C54.5318 6.83998 54.865 6.63998 54.865 6.17332C54.865 5.70665 53.9986 5.50665 53.6388 5.43998C52.4792 5.17332 51.4063 4.93332 51.4063 3.59332C51.4063 2.38665 52.939 1.85999 53.9986 1.85999C55.2715 1.85999 56.3577 2.29999 56.4443 3.56665L54.8183 3.59332Z" fill="white"/>
<path d="M9.93604 29L9.52954 30.1333C9.05269 30.3402 8.53639 30.4403 8.01679 30.4266C6.17751 30.4266 5.71103 29.34 5.71103 28.3866C5.7063 27.7603 5.88466 27.1463 6.22416 26.62C6.50693 26.1976 6.89618 25.8574 7.35255 25.6338C7.80892 25.4102 8.31622 25.3112 8.82314 25.3466C9.38992 25.3409 9.9498 25.4712 10.4558 25.7266L10.1826 26.7866H9.9627C9.99602 26.0266 9.68947 25.6 8.7765 25.6C7.18379 25.6 6.56403 27.2933 6.56403 28.5733C6.56403 29.64 7.15047 30.18 7.99014 30.18C8.36221 30.1795 8.72547 30.0666 9.03229 29.8561C9.3391 29.6455 9.57514 29.3471 9.70946 29H9.93604Z" fill="white"/>
<path d="M11.8486 26.8934L12.4417 24.4134C12.5617 23.9001 12.5883 23.7467 12.4417 23.7467H11.9486L11.9886 23.5667L13.2348 23.3734H13.2747L12.9482 24.6667C13.3414 23.8801 13.8545 23.3334 14.281 23.3334C14.3249 23.3236 14.3704 23.3236 14.4143 23.3334C14.4574 23.3449 14.4965 23.368 14.5276 23.4001C14.5616 23.4307 14.5869 23.4698 14.6009 23.5134C14.6111 23.555 14.6111 23.5984 14.6009 23.64C14.6009 23.84 14.4143 24.1067 14.2277 24.1067C14.0411 24.1067 14.0145 23.9267 13.8079 23.9267C13.6013 23.9267 13.2614 24.4467 12.9882 25.1534C12.7982 25.697 12.6402 26.2513 12.515 26.8134L11.8486 26.8934Z" fill="white"/>
<path d="M16.8202 30.5334C16.6446 30.838 16.3917 31.091 16.0872 31.2667C15.7769 31.4458 15.4258 31.5422 15.0676 31.5467C14.9165 31.5606 14.7642 31.5399 14.6223 31.4861C14.4804 31.4324 14.3525 31.347 14.2485 31.2365C14.1445 31.126 14.0669 30.9933 14.0218 30.8483C13.9767 30.7034 13.9651 30.5501 13.988 30.4C13.9911 29.7869 14.2053 29.1936 14.5944 28.72C14.7728 28.4867 15.0003 28.2955 15.2608 28.16C15.5369 28.025 15.8399 27.9544 16.1472 27.9534C16.7536 27.9534 17.0202 28.2867 17.0202 28.66C17.0202 29.62 15.4674 29.8934 14.7144 29.9934C14.7144 30.0467 14.7144 30.2134 14.7144 30.2534C14.7144 30.7934 14.8677 31.2067 15.3808 31.2067C15.637 31.1785 15.8832 31.0916 16.1005 30.9529C16.3178 30.8142 16.5002 30.6273 16.6336 30.4067L16.8202 30.5334ZM16.3804 28.6134C16.3937 28.5609 16.3937 28.5059 16.3804 28.4534C16.3602 28.4053 16.3333 28.3604 16.3004 28.32C16.2609 28.2793 16.2132 28.2475 16.1605 28.2267C16.1077 28.2166 16.0534 28.2166 16.0005 28.2267C15.4208 28.2267 14.901 28.9334 14.781 29.7734C15.7073 29.6134 16.3804 29.28 16.3804 28.6134V28.6134Z" fill="white"/>
<path d="M21.038 22.4467L20.2583 25.2C20.1983 25.4267 20.1983 25.5733 20.3316 25.5733C20.4649 25.5733 20.8514 25.0867 20.998 24.8333L21.1846 24.94C20.9247 25.4733 20.5182 25.9667 19.9651 25.9667C19.5586 25.9667 19.4653 25.6667 19.6252 25.1667L19.8451 24.4467C19.4253 25.1533 18.7389 25.9667 17.9525 25.9667C17.4261 25.9667 17.2861 25.6 17.2861 25.12C17.2861 24.2 18.0858 22.3733 19.8118 22.3733C20.0187 22.3686 20.2224 22.4242 20.3982 22.5333V22.4467H21.038ZM19.8451 22.6333C18.7122 22.6333 18.0059 24.3333 18.0059 25.1C18.0059 25.3733 18.0725 25.5733 18.3057 25.5733C18.9721 25.5733 19.8918 24.0067 20.1184 23.32C20.185 23.12 20.245 22.9333 20.2916 22.7733C20.1646 22.6742 20.006 22.6245 19.8451 22.6333V22.6333Z" fill="white"/>
<path d="M22.4447 26.4467L21.7783 28.9533C21.7317 29.1267 21.7384 29.28 21.8783 29.28C22.0182 29.28 22.4781 28.8333 22.6513 28.5467L22.8113 28.68C22.696 28.9482 22.5121 29.1812 22.2781 29.3556C22.0441 29.53 21.7683 29.6396 21.4785 29.6733C21.1053 29.6733 21.012 29.38 21.1253 29.0067L21.7917 26.48H21.1786L21.2519 26.2067H21.845L22.0182 25.5733L22.6847 25.2067L22.7713 25.2533L22.5114 26.1933H23.3711L23.2844 26.4667L22.4447 26.4467Z" fill="white"/>
<path d="M26.443 25.2066C26.1897 25.74 25.7766 26.2133 25.2501 26.2133C24.8436 26.2133 24.7436 25.9133 24.8502 25.5066L25.47 23.3466C25.5366 23.1066 25.5167 23.04 25.3101 23.0266H24.8902L24.9435 22.8533L26.2764 22.66L26.3163 22.6933L25.5233 25.48C25.4633 25.6933 25.45 25.86 25.59 25.86C25.7299 25.86 26.1164 25.3733 26.2564 25.1266L26.443 25.2066ZM26.6296 21.58C26.6425 21.6415 26.6425 21.7051 26.6296 21.7666C26.6092 21.8271 26.575 21.8819 26.5296 21.9266C26.4831 21.9698 26.4288 22.0037 26.3697 22.0266C26.3063 22.043 26.2398 22.043 26.1764 22.0266C26.1238 22.0394 26.069 22.0394 26.0165 22.0266C25.9676 22.0073 25.923 21.9785 25.8853 21.9419C25.8475 21.9053 25.8174 21.8616 25.7965 21.8133C25.7836 21.7608 25.7836 21.7058 25.7965 21.6533C25.7835 21.594 25.7835 21.5326 25.7965 21.4733C25.8236 21.4168 25.8596 21.365 25.9032 21.32C25.9497 21.2768 26.0039 21.2428 26.0631 21.22C26.1249 21.2099 26.1879 21.2099 26.2497 21.22C26.3026 21.2103 26.3568 21.2103 26.4096 21.22C26.4589 21.2375 26.5043 21.2647 26.5429 21.3C26.5798 21.3361 26.6093 21.3791 26.6296 21.4266C26.636 21.4775 26.636 21.5291 26.6296 21.58V21.58Z" fill="white"/>
<path d="M27.5958 24.7L27.6358 24.74L26.9694 27.4066C26.8827 27.74 27.0294 27.9066 27.2159 27.9066C27.8824 27.9066 28.7953 26.7933 28.7953 25.5666C28.8013 25.3289 28.7766 25.0914 28.722 24.86C28.8893 24.7658 29.0767 24.7133 29.2685 24.7066C29.3461 24.7728 29.4074 24.8559 29.4479 24.9495C29.4883 25.0431 29.5067 25.1448 29.5017 25.2466C29.3892 25.9432 29.0924 26.5969 28.6421 27.14C28.4451 27.4482 28.1843 27.7107 27.8774 27.9096C27.5705 28.1086 27.2245 28.2394 26.8627 28.2933C26.4362 28.2933 26.1963 27.98 26.3363 27.3533L26.8028 25.44C26.8561 25.2133 26.8561 25.12 26.6895 25.1066H26.2363L26.283 24.9266L27.5958 24.7Z" fill="white"/>
<path d="M31.5146 30.0667C31.3377 30.3704 31.0851 30.6231 30.7815 30.8C30.4712 30.9791 30.1201 31.0756 29.7619 31.08C29.6108 31.0939 29.4585 31.0732 29.3166 31.0195C29.1747 30.9657 29.0469 30.8804 28.9428 30.7698C28.8388 30.6593 28.7613 30.5266 28.7161 30.3817C28.671 30.2367 28.6594 30.0834 28.6823 29.9334C28.6869 29.3226 28.901 28.7319 29.2888 28.26C29.4642 28.0222 29.6923 27.8282 29.9552 27.6934C30.2312 27.5583 30.5342 27.4877 30.8415 27.4867C31.4479 27.4867 31.7145 27.82 31.7145 28.2C31.7145 29.1534 30.1618 29.4267 29.4087 29.5334C29.4087 29.5867 29.4087 29.76 29.4087 29.7934C29.4087 30.3334 29.562 30.7534 30.0751 30.7534C30.3309 30.7237 30.5766 30.6362 30.7936 30.4977C31.0107 30.3591 31.1934 30.1729 31.328 29.9534L31.5146 30.0667ZM31.0747 28.1467C31.0847 28.0938 31.0847 28.0396 31.0747 27.9867C31.0546 27.9371 31.0252 27.8919 30.9881 27.8534C30.9525 27.8113 30.9065 27.7791 30.8548 27.76C30.8019 27.7504 30.7478 27.7504 30.6949 27.76C30.1151 27.76 29.5953 28.4267 29.4687 29.3C30.4017 29.1467 31.0747 28.8134 31.0747 28.1467Z" fill="white"/>
<path d="M36.4456 23.1267H37.8917C38.0983 24.1934 38.5048 26 38.6981 26.8534C39.5178 25.7067 40.6973 24.1134 41.2771 23.1267H42.7298L42.6765 23.3334H42.2767C42.0901 23.3334 42.0234 23.4467 41.9701 23.6867L41.0838 27.3534C41.0372 27.5734 41.0838 27.68 41.2504 27.6934L41.6836 27.7267L41.6303 27.94H39.611L39.6577 27.7267L40.0509 27.6934C40.2308 27.6934 40.3108 27.5867 40.3641 27.3534L41.2571 23.7067C40.4307 24.86 39.1246 26.86 38.3782 28H38.1516C37.945 26.92 37.4852 24.5934 37.3119 23.6734C36.7188 26.1467 36.5056 26.96 36.5056 27.4334C36.5056 27.6534 36.5989 27.72 36.8321 27.74H37.1254L37.092 27.9534H35.3594L35.3994 27.74H35.6259C35.7028 27.7326 35.7764 27.705 35.8392 27.66C35.9134 27.603 35.9672 27.5235 35.9925 27.4334C36.1591 26.9934 36.399 26.0134 36.9588 23.7134C37.0121 23.48 36.9588 23.3934 36.7921 23.38L36.3656 23.3334L36.4456 23.1267Z" fill="white"/>
<path d="M45.049 27.0266L44.2693 29.8533C44.2093 30.0666 44.196 30.2266 44.3426 30.2266C44.4892 30.2266 44.8891 29.7533 45.009 29.4933L45.1889 29.6133C45.0888 29.8745 44.9214 30.1046 44.7037 30.2802C44.486 30.4558 44.2258 30.5707 43.9494 30.6133C43.5629 30.6133 43.463 30.3133 43.6096 29.8399L43.8361 29.1133C43.3963 29.9199 42.6633 30.6133 41.9502 30.6133C41.3704 30.6133 41.2838 30.1466 41.4637 29.5866L41.9635 27.7599C42.0235 27.5466 42.0302 27.4399 41.8502 27.4266L41.4104 27.3933L41.4504 27.2199L42.7832 27.0266L42.1168 29.5933C42.0102 29.9933 42.0635 30.1866 42.2901 30.1866C42.8565 30.1866 43.5229 29.2466 43.8361 28.5399C44.0502 28.0674 44.2284 27.5793 44.3693 27.0799L45.049 27.0266Z" fill="white"/>
<path d="M47.9548 23.4067C47.9537 23.4473 47.9443 23.4872 47.9271 23.5239C47.9099 23.5606 47.8853 23.5933 47.8548 23.6201C47.825 23.6498 47.7897 23.6733 47.7508 23.6893C47.7119 23.7053 47.6703 23.7135 47.6282 23.7134C47.5829 23.7134 47.5387 23.6995 47.5016 23.6734C47.4665 23.6494 47.4406 23.6141 47.4283 23.5734C47.2883 23.2601 47.1017 23.1001 46.8485 23.1001C46.7896 23.0842 46.7275 23.0842 46.6686 23.1001C46.6121 23.1206 46.5617 23.155 46.522 23.2001C46.4811 23.242 46.4494 23.292 46.4287 23.3467C46.416 23.4038 46.416 23.463 46.4287 23.5201C46.4287 23.7601 46.4887 23.9334 46.9352 24.2801C47.3816 24.6267 47.6016 24.8934 47.6016 25.3134C47.5679 25.6339 47.4089 25.9281 47.1591 26.1317C46.9094 26.3353 46.5893 26.4318 46.2687 26.4001C45.5157 26.4001 45.2158 25.9734 45.2158 25.7334C45.2225 25.6402 45.2628 25.5526 45.3291 25.4867C45.3997 25.4204 45.4922 25.3824 45.589 25.3801C45.7156 25.3801 45.7689 25.4467 45.8156 25.5801C45.8552 25.7316 45.9414 25.8669 46.0622 25.9667C46.1871 26.069 46.3409 26.1296 46.502 26.1401C46.568 26.153 46.6359 26.153 46.7019 26.1401C46.7638 26.1125 46.8202 26.0742 46.8685 26.0267C46.9159 25.9824 46.9524 25.9276 46.9751 25.8667C46.9881 25.8029 46.9881 25.7372 46.9751 25.6734C46.9751 25.4467 46.8419 25.1867 46.4553 24.8667C46.0688 24.5467 45.7889 24.3334 45.7889 23.9134C45.7944 23.7561 45.8333 23.6018 45.9031 23.4608C45.973 23.3198 46.072 23.1953 46.1937 23.0956C46.3155 22.9959 46.457 22.9233 46.609 22.8827C46.761 22.8421 46.9199 22.8344 47.0751 22.8601C47.7415 22.8601 47.9614 23.2401 47.9614 23.4334" fill="white"/>
<path d="M51.167 27.74C50.9963 28.0462 50.7451 28.2998 50.4406 28.4734C50.132 28.6565 49.7798 28.7533 49.421 28.7534C49.2694 28.7683 49.1163 28.7484 48.9736 28.6952C48.8308 28.6419 48.7021 28.5567 48.5973 28.4461C48.4925 28.3354 48.4143 28.2023 48.3688 28.0568C48.3233 27.9113 48.3117 27.7574 48.3348 27.6067C48.3431 26.9966 48.5567 26.4071 48.9412 25.9334C49.1171 25.696 49.3451 25.5022 49.6076 25.3667C49.8865 25.2331 50.1914 25.1625 50.5006 25.16C51.1137 25.16 51.3736 25.4934 51.3736 25.8734C51.3736 26.8267 49.8275 27.1 49.0745 27.2067C49.0681 27.2933 49.0681 27.3802 49.0745 27.4667C49.0745 28.0067 49.2344 28.42 49.7409 28.42C49.9967 28.3904 50.2423 28.3029 50.4594 28.1643C50.6764 28.0257 50.8591 27.8396 50.9937 27.62L51.167 27.74ZM50.7338 25.82C50.7441 25.7694 50.7441 25.7173 50.7338 25.6667C50.7155 25.6143 50.686 25.5665 50.6472 25.5267C50.6072 25.4897 50.5624 25.4583 50.5139 25.4334C50.4589 25.4232 50.4024 25.4232 50.3473 25.4334C49.7742 25.4334 49.2544 26.14 49.1278 26.9734C50.0674 26.8467 50.7472 26.5134 50.7472 25.8467" fill="white"/>
<path d="M55.5385 26.5601L54.7588 29.3867C54.6988 29.6067 54.6855 29.7601 54.8321 29.7601C54.9787 29.7601 55.3785 29.2867 55.4985 29.0267L55.6784 29.1467C55.5857 29.4016 55.4281 29.6279 55.2213 29.8033C55.0144 29.9786 54.7654 30.097 54.4989 30.1467C54.1124 30.1467 54.0191 29.8467 54.159 29.3734L54.3723 28.6467C53.9258 29.4601 53.1994 30.1467 52.4863 30.1467C51.9066 30.1467 51.8199 29.6801 51.9999 29.1267L52.4997 27.2934C52.5596 27.0801 52.5663 26.9734 52.3864 26.9601H51.9465L51.9799 26.7801L53.3127 26.5867V26.6201L52.6463 29.1801C52.5397 29.5801 52.593 29.7734 52.8195 29.7734C53.386 29.7734 54.0457 28.8334 54.3656 28.1267C54.5768 27.653 54.7549 27.1651 54.8987 26.6667L55.5385 26.5601Z" fill="white"/>
<path d="M56.3908 24.4333L57.7236 24.2399H57.7636L57.3171 25.6266C57.8303 24.7933 58.4967 24.2333 59.1631 24.2333C59.6762 24.2333 59.8295 24.6266 59.5962 25.2866L59.4763 25.6666C60.0027 24.7733 60.6492 24.2333 61.3156 24.2333C61.982 24.2333 62.0219 24.7133 61.8487 25.2533L61.2822 27.0599C61.2156 27.2733 61.1889 27.4333 61.3356 27.4333C61.4822 27.4333 61.882 26.9466 62.002 26.7066L62.1819 26.8266C62.0945 27.0895 61.9352 27.3226 61.722 27.4994C61.5087 27.6762 61.2502 27.7896 60.9757 27.8266C60.6025 27.8266 60.4492 27.5599 60.5825 27.1199L61.2089 25.1199C61.3022 24.8133 61.2089 24.6399 60.9624 24.6399C60.3693 24.6399 59.7362 25.6133 59.4629 26.2133C59.2432 26.7109 59.0584 27.2233 58.9098 27.7466L58.2434 27.8333C58.4767 26.9933 58.7499 26.0399 58.9765 25.1999C59.1031 24.7866 58.9765 24.6399 58.7632 24.6399C58.1768 24.6399 57.4971 25.6666 57.2372 26.2666C57.0404 26.7506 56.8691 27.2446 56.724 27.7466L56.0576 27.8333L56.8107 24.9866C56.8773 24.7666 56.8906 24.6666 56.7107 24.6533L56.2709 24.6199L56.3908 24.4333Z" fill="white"/>
</g>
<defs>
<clipPath id="clip0_1781_22733">
<rect width="62.2356" height="40" fill="white"/>
</clipPath>
</defs>
</svg>
