<svg width="4" height="17" viewBox="0 0 4 17" fill="none" xmlns="http://www.w3.org/2000/svg">
<path d="M2.03768 2.89152C2.84525 2.89152 3.49992 2.24423 3.49992 1.44576C3.49992 0.647289 2.84525 0 2.03768 0C1.23011 0 0.575439 0.647289 0.575439 1.44576C0.575439 2.24423 1.23011 2.89152 2.03768 2.89152Z" fill="white"/>
<path d="M2.03768 9.63835C2.84525 9.63835 3.49992 8.99106 3.49992 8.19259C3.49992 7.39412 2.84525 6.74683 2.03768 6.74683C1.23011 6.74683 0.575439 7.39412 0.575439 8.19259C0.575439 8.99106 1.23011 9.63835 2.03768 9.63835Z" fill="white"/>
<path d="M2.03768 16.3853C2.84525 16.3853 3.49992 15.738 3.49992 14.9395C3.49992 14.1411 2.84525 13.4938 2.03768 13.4938C1.23011 13.4938 0.575439 14.1411 0.575439 14.9395C0.575439 15.738 1.23011 16.3853 2.03768 16.3853Z" fill="white"/>
</svg>
