<svg width="32" height="32" viewBox="0 0 32 32" fill="none" xmlns="http://www.w3.org/2000/svg">
<path d="M26.0543 12.3316C28.7314 12.3316 30.9016 10.1614 30.9016 7.48429C30.9016 4.80721 28.7314 2.63701 26.0543 2.63701C23.3772 2.63701 21.207 4.80721 21.207 7.48429C21.207 10.1614 23.3772 12.3316 26.0543 12.3316Z" stroke="white" stroke-miterlimit="10" stroke-linecap="round"/>
<path d="M21.2083 7.48429L7.79376 21.229C7.51321 21.5165 7.35024 21.8984 7.33684 22.2999C7.32343 22.7014 7.46055 23.0934 7.7213 23.399L7.79779 23.4875C8.06759 23.8035 8.44904 24.0029 8.86244 24.0442C9.27583 24.0854 9.68918 23.9653 10.0161 23.709L24.7713 12.1625" stroke="white" stroke-miterlimit="10" stroke-linecap="round"/>
<path d="M7.79893 23.5761L3.9501 27.437C3.9501 27.437 2.33971 28.9387 3.9501 30.541C5.31893 31.9099 6.71595 30.541 6.71595 30.541L15.9958 22.8031C15.9958 22.8031 17.3848 21.4504 18.7375 22.8031C20.0902 24.1558 18.7375 25.5086 18.7375 25.5086" stroke="white" stroke-miterlimit="10" stroke-linecap="round"/>
</svg>
