<svg width="33" height="32" viewBox="0 0 33 32" fill="none" xmlns="http://www.w3.org/2000/svg">
<g clip-path="url(#clip0_397_5250)">
<path d="M29.6138 6.13857H3.04241C2.09564 6.13857 1.32812 6.90608 1.32812 7.85286V24.1514C1.32812 25.0982 2.09564 25.8657 3.04241 25.8657H29.6138C30.5606 25.8657 31.3281 25.0982 31.3281 24.1514V7.85286C31.3281 6.90608 30.5606 6.13857 29.6138 6.13857Z" stroke="white" stroke-miterlimit="10" stroke-linecap="round"/>
<path d="M14.1382 12.46L19.5082 15.5714C19.5732 15.6091 19.6271 15.6632 19.6646 15.7282C19.702 15.7933 19.7218 15.8671 19.7218 15.9421C19.7218 16.0172 19.702 16.091 19.6646 16.156C19.6271 16.2211 19.5732 16.2752 19.5082 16.3129L14.0011 19.5229C13.9362 19.5574 13.8635 19.5747 13.79 19.5731C13.7165 19.5714 13.6446 19.5509 13.5814 19.5134C13.5181 19.476 13.4655 19.4229 13.4287 19.3592C13.3919 19.2956 13.372 19.2235 13.3711 19.15L13.5082 12.8157C13.512 12.7437 13.5339 12.6737 13.5718 12.6124C13.6098 12.551 13.6627 12.5003 13.7255 12.4648C13.7883 12.4293 13.8591 12.4103 13.9313 12.4094C14.0034 12.4086 14.0746 12.426 14.1382 12.46V12.46Z" stroke="white" stroke-miterlimit="10" stroke-linecap="round"/>
</g>
<defs>
<clipPath id="clip0_397_5250">
<rect width="32" height="32" fill="white" transform="translate(0.125)"/>
</clipPath>
</defs>
</svg>
