<svg width="39" height="32" viewBox="0 0 39 32" fill="none" xmlns="http://www.w3.org/2000/svg">
<g clip-path="url(#clip0_397_5251)">
<path d="M6.47656 9.11905H32.1789V26.4914C32.1789 26.9208 32.0084 27.3326 31.7047 27.6363C31.4011 27.9399 30.9893 28.1105 30.5599 28.1105H8.09561C7.66621 28.1105 7.2544 27.9399 6.95077 27.6363C6.64714 27.3326 6.47656 26.9208 6.47656 26.4914V9.11905Z" stroke="white" stroke-miterlimit="10" stroke-linecap="round"/>
<path d="M31.9289 3.88952H6.72842C5.83425 3.88952 5.10938 4.6144 5.10938 5.50857V7.52024C5.10938 8.41441 5.83425 9.13929 6.72842 9.13929H31.9289C32.8231 9.13929 33.5479 8.41441 33.5479 7.52024V5.50857C33.5479 4.6144 32.8231 3.88952 31.9289 3.88952Z" stroke="white" stroke-miterlimit="10" stroke-linecap="round"/>
<path d="M23.4197 12.2762H15.2314C14.7843 12.2762 14.4219 12.6386 14.4219 13.0857V15.1905C14.4219 15.6376 14.7843 16 15.2314 16H23.4197C23.8668 16 24.2293 15.6376 24.2293 15.1905V13.0857C24.2293 12.6386 23.8668 12.2762 23.4197 12.2762Z" stroke="white" stroke-miterlimit="10" stroke-linecap="round"/>
</g>
<defs>
<clipPath id="clip0_397_5251">
<rect width="37.6986" height="32" fill="white" transform="translate(0.855469)"/>
</clipPath>
</defs>
</svg>
