<svg width="33" height="32" viewBox="0 0 33 32" fill="none" xmlns="http://www.w3.org/2000/svg">
<g clip-path="url(#clip0_397_5252)">
<path d="M28.188 2.61714H4.34803C3.50645 2.61714 2.82422 3.29938 2.82422 4.14095V27.981C2.82422 28.8225 3.50645 29.5048 4.34803 29.5048H28.188C29.0296 29.5048 29.7118 28.8225 29.7118 27.981V4.14095C29.7118 3.29938 29.0296 2.61714 28.188 2.61714Z" stroke="white" stroke-miterlimit="10" stroke-linecap="round"/>
<path d="M3.20312 23.3638L12.0488 14.1371C12.3345 13.8522 12.7215 13.6921 13.125 13.6921C13.5285 13.6921 13.9156 13.8522 14.2012 14.1371L22.346 22.2819C22.6092 22.5446 22.9593 22.702 23.3305 22.7245C23.7017 22.7469 24.0683 22.6329 24.3612 22.4038L29.3136 18.2133" stroke="white" stroke-miterlimit="10" stroke-linecap="round"/>
<path d="M22.9584 13.9352C24.8835 13.9352 26.4441 12.3746 26.4441 10.4495C26.4441 8.52442 24.8835 6.96381 22.9584 6.96381C21.0333 6.96381 19.4727 8.52442 19.4727 10.4495C19.4727 12.3746 21.0333 13.9352 22.9584 13.9352Z" stroke="white" stroke-miterlimit="10" stroke-linecap="round"/>
</g>
<defs>
<clipPath id="clip0_397_5252">
<rect width="32" height="32" fill="white" transform="translate(0.855469)"/>
</clipPath>
</defs>
</svg>
