<svg width="24" height="24" viewBox="0 0 24 24" fill="none" xmlns="http://www.w3.org/2000/svg">
<path d="M19.8 3.34H3.68855C3.55322 3.34989 3.42666 3.41062 3.33428 3.51C3.2419 3.60938 3.19055 3.74003 3.19055 3.87571C3.19055 4.0114 3.2419 4.14205 3.33428 4.24143C3.42666 4.34081 3.55322 4.40154 3.68855 4.41143H19.8C19.9353 4.40154 20.0619 4.34081 20.1542 4.24143C20.2466 4.14205 20.298 4.0114 20.298 3.87571C20.298 3.74003 20.2466 3.60938 20.1542 3.51C20.0619 3.41062 19.9353 3.34989 19.8 3.34Z" fill="white"/>
<path d="M2.74 2.53143H21.26C21.3953 2.52154 21.5219 2.4608 21.6143 2.36143C21.7066 2.26205 21.758 2.1314 21.758 1.99571C21.758 1.86003 21.7066 1.72938 21.6143 1.63C21.5219 1.53062 21.3953 1.46989 21.26 1.46H2.74C2.60468 1.46989 2.47811 1.53062 2.38573 1.63C2.29335 1.72938 2.242 1.86003 2.242 1.99571C2.242 2.1314 2.29335 2.26205 2.38573 2.36143C2.47811 2.4608 2.60468 2.52154 2.74 2.53143Z" fill="white"/>
<path d="M3.94859 17.3629H19.1743C19.46 17.3629 19.7229 17.3486 19.9943 17.3629C20.0486 17.3629 20.16 17.3857 20.16 17.3857C20.16 17.3857 20.2029 17.3686 20.1 17.4343C20.0686 17.4543 20.0314 17.4686 19.9972 17.4857C18.9057 18.0571 17.8086 18.6086 16.7114 19.1686L12.66 21.2429L12.1772 21.4886C12.0514 21.5543 12 21.5657 11.9457 21.5514C11.639 21.4319 11.3451 21.2816 11.0686 21.1029L6.88287 18.96L4.90002 17.9457C4.56417 17.7947 4.23614 17.6269 3.91716 17.4429C3.81144 17.3743 3.78002 17.3714 3.94859 17.3629C4.6343 17.3257 4.63716 16.2543 3.94859 16.2914C3.32287 16.3257 2.7343 16.7657 2.76573 17.4343C2.77911 17.6297 2.84337 17.8182 2.95213 17.9811C3.0609 18.144 3.21038 18.2756 3.38573 18.3629C3.76287 18.5743 4.15716 18.76 4.52859 18.9543L9.10002 21.2943L10.9257 22.2286C11.4657 22.5143 11.9572 22.7657 12.5857 22.4686C13.5914 22 14.5714 21.4686 15.5514 20.9657L19.9257 18.7257C20.2948 18.5811 20.639 18.3796 20.9457 18.1286C21.041 18.0225 21.1144 17.8986 21.1616 17.764C21.2088 17.6294 21.2288 17.4868 21.2206 17.3444C21.2123 17.202 21.176 17.0627 21.1136 16.9344C21.0512 16.8062 20.9641 16.6915 20.8572 16.5971C20.6195 16.3914 20.3143 16.2805 20 16.2857C17.4286 16.2143 14.8572 16.2857 12.3114 16.2857H3.94859C3.80575 16.2857 3.66876 16.3425 3.56776 16.4435C3.46676 16.5445 3.41002 16.6815 3.41002 16.8243C3.41002 16.9671 3.46676 17.1041 3.56776 17.2051C3.66876 17.3061 3.80575 17.3629 3.94859 17.3629Z" fill="white"/>
<path d="M18.7657 15.3571V5.75714C18.7643 5.61514 18.7072 5.47938 18.6068 5.37897C18.5064 5.27856 18.3706 5.22149 18.2286 5.22H15.0857C14.9442 5.22223 14.8092 5.27962 14.7094 5.37996C14.6096 5.48029 14.5529 5.61563 14.5515 5.75714V15.3571C14.5613 15.4925 14.6221 15.619 14.7215 15.7114C14.8208 15.8038 14.9515 15.8551 15.0872 15.8551C15.2228 15.8551 15.3535 15.8038 15.4529 15.7114C15.5523 15.619 15.613 15.4925 15.6229 15.3571V5.75714L15.0743 6.28571H18.2172L17.6829 5.75143V15.3514C17.6928 15.4867 17.7535 15.6133 17.8529 15.7057C17.9523 15.7981 18.0829 15.8494 18.2186 15.8494C18.3543 15.8494 18.4849 15.7981 18.5843 15.7057C18.6837 15.6133 18.7444 15.4867 18.7543 15.3514L18.7657 15.3571Z" fill="white"/>
<path d="M12.4572 15.3571V5.75714L11.9229 6.28571H15.0657C15.2011 6.27583 15.3276 6.21509 15.42 6.11571C15.5124 6.01634 15.5637 5.88568 15.5637 5.75C15.5637 5.61432 15.5124 5.48366 15.42 5.38429C15.3276 5.28491 15.2011 5.22417 15.0657 5.21429H11.9229C11.7809 5.21577 11.6451 5.27284 11.5447 5.37326C11.4443 5.47367 11.3872 5.60943 11.3857 5.75143V15.3514C11.3956 15.4868 11.4564 15.6133 11.5557 15.7057C11.6551 15.7981 11.7858 15.8494 11.9215 15.8494C12.0571 15.8494 12.1878 15.7981 12.2872 15.7057C12.3865 15.6133 12.4473 15.4868 12.4572 15.3514V15.3571Z" fill="white"/>
<path d="M9.30574 15.3571V5.75714L8.7686 6.28571H11.9115C12.0468 6.27583 12.1733 6.21509 12.2657 6.11571C12.3581 6.01634 12.4095 5.88568 12.4095 5.75C12.4095 5.61432 12.3581 5.48366 12.2657 5.38429C12.1733 5.28491 12.0468 5.22417 11.9115 5.21429H8.7686C8.6271 5.21651 8.49206 5.27391 8.39226 5.37424C8.29246 5.47458 8.23579 5.60992 8.23431 5.75143V15.3514C8.2442 15.4868 8.30494 15.6133 8.40431 15.7057C8.50369 15.7981 8.63435 15.8494 8.77003 15.8494C8.90571 15.8494 9.03637 15.7981 9.13574 15.7057C9.23512 15.6133 9.29585 15.4868 9.30574 15.3514V15.3571Z" fill="white"/>
<path d="M6.15145 15.3571V5.75714L5.61716 6.28571H8.76002C8.89534 6.27583 9.0219 6.21509 9.11428 6.11571C9.20666 6.01634 9.25801 5.88568 9.25801 5.75C9.25801 5.61432 9.20666 5.48366 9.11428 5.38429C9.0219 5.28491 8.89534 5.22417 8.76002 5.21429H5.61716C5.47516 5.21577 5.3394 5.27284 5.23899 5.37326C5.13857 5.47367 5.0815 5.60943 5.08002 5.75143V15.3514C5.08991 15.4868 5.15064 15.6133 5.25002 15.7057C5.34939 15.7981 5.48005 15.8494 5.61573 15.8494C5.75141 15.8494 5.88207 15.7981 5.98145 15.7057C6.08082 15.6133 6.14156 15.4868 6.15145 15.3514V15.3571Z" fill="white"/>
</svg>
