<svg width="33" height="32" viewBox="0 0 33 32" fill="none" xmlns="http://www.w3.org/2000/svg">
<g clip-path="url(#clip0_397_5253)">
<path d="M28.3099 2.49524H4.34803C3.50645 2.49524 2.82422 3.17747 2.82422 4.01905V27.981C2.82422 28.8225 3.50645 29.5048 4.34803 29.5048H28.3099C29.1515 29.5048 29.8337 28.8225 29.8337 27.981V4.01905C29.8337 3.17747 29.1515 2.49524 28.3099 2.49524Z" stroke="white" stroke-miterlimit="10" stroke-linecap="round"/>
<path d="M10.1196 15.0362H8.66815C8.24737 15.0362 7.90625 15.3773 7.90625 15.7981V25.6838C7.90625 26.1046 8.24737 26.4457 8.66815 26.4457H10.1196C10.5404 26.4457 10.8815 26.1046 10.8815 25.6838V15.7981C10.8815 15.3773 10.5404 15.0362 10.1196 15.0362Z" stroke="white" stroke-miterlimit="10" stroke-linecap="round"/>
<path d="M17.0141 7.98857H15.5627C15.1419 7.98857 14.8008 8.32969 14.8008 8.75048V25.68C14.8008 26.1008 15.1419 26.4419 15.5627 26.4419H17.0141C17.4349 26.4419 17.776 26.1008 17.776 25.68V8.75048C17.776 8.32969 17.4349 7.98857 17.0141 7.98857Z" stroke="white" stroke-miterlimit="10" stroke-linecap="round"/>
<path d="M23.9126 12.4267H22.4611C22.0403 12.4267 21.6992 12.7678 21.6992 13.1886V25.68C21.6992 26.1008 22.0403 26.4419 22.4611 26.4419H23.9126C24.3333 26.4419 24.6745 26.1008 24.6745 25.68V13.1886C24.6745 12.7678 24.3333 12.4267 23.9126 12.4267Z" stroke="white" stroke-miterlimit="10" stroke-linecap="round"/>
</g>
<defs>
<clipPath id="clip0_397_5253">
<rect width="32" height="32" fill="white" transform="translate(0.125)"/>
</clipPath>
</defs>
</svg>
