<svg width="24" height="24" viewBox="0 0 24 24" fill="none" xmlns="http://www.w3.org/2000/svg">
<path d="M4.20002 20.7486H20.3114C20.4468 20.7387 20.5733 20.6779 20.6657 20.5786C20.7581 20.4792 20.8094 20.3485 20.8094 20.2129C20.8094 20.0772 20.7581 19.9465 20.6657 19.8471C20.5733 19.7478 20.4468 19.687 20.3114 19.6771H4.20002C4.0647 19.687 3.93813 19.7478 3.84575 19.8471C3.75337 19.9465 3.70203 20.0772 3.70203 20.2129C3.70203 20.3485 3.75337 20.4792 3.84575 20.5786C3.93813 20.6779 4.0647 20.7387 4.20002 20.7486Z" fill="white"/>
<path d="M21.26 21.5571H2.74C2.60468 21.567 2.47811 21.6278 2.38573 21.7271C2.29335 21.8265 2.242 21.9572 2.242 22.0929C2.242 22.2285 2.29335 22.3592 2.38573 22.4586C2.47811 22.5579 2.60468 22.6187 2.74 22.6286H21.26C21.3953 22.6187 21.5219 22.5579 21.6143 22.4586C21.7066 22.3592 21.758 22.2285 21.758 22.0929C21.758 21.9572 21.7066 21.8265 21.6143 21.7271C21.5219 21.6278 21.3953 21.567 21.26 21.5571Z" fill="white"/>
<path d="M20.0514 6.72571H4.82572C4.54 6.72571 4.27715 6.74 4.00572 6.72571C3.95143 6.72571 3.84 6.70286 3.84 6.70286C3.84 6.70286 3.79715 6.72 3.9 6.65429C3.93143 6.63429 3.96858 6.62 4.00286 6.60286C5.09429 6.03143 6.19143 5.48 7.28858 4.92L11.34 2.85714L11.8229 2.61143C11.9486 2.54571 12 2.53429 12.0543 2.54857C12.361 2.66814 12.6549 2.81843 12.9314 2.99714L17.1171 5.14286L19.1 6.15714C19.4358 6.30817 19.7639 6.47601 20.0829 6.66C20.1886 6.72857 20.22 6.73143 20.0514 6.74C19.3657 6.77714 19.3629 7.84857 20.0514 7.81143C20.6771 7.77714 21.2657 7.33714 21.2343 6.66857C21.2253 6.4687 21.1631 6.27484 21.0541 6.10707C20.9451 5.93929 20.7933 5.80369 20.6143 5.71429C20.2371 5.50286 19.8429 5.31714 19.4714 5.12286L14.9 2.78286L13.0657 1.85143C12.5257 1.56571 12.0343 1.31429 11.4057 1.61143C10.4086 2.08286 9.42858 2.62 8.44858 3.12286L4.07429 5.36286C3.70521 5.50744 3.36104 5.70893 3.05429 5.96C2.95897 6.06609 2.88561 6.19 2.83844 6.3246C2.79126 6.45919 2.77122 6.60179 2.77945 6.74417C2.78769 6.88655 2.82404 7.02589 2.88641 7.15415C2.94879 7.28241 3.03595 7.39704 3.14286 7.49143C3.38135 7.69512 3.68644 7.80394 4 7.79714C6.57143 7.86857 9.14286 7.79714 11.6886 7.79714H20.06C20.1953 7.78623 20.3214 7.7245 20.4131 7.62438C20.5047 7.52426 20.555 7.39316 20.5539 7.25744C20.5528 7.12172 20.5004 6.99145 20.4072 6.8928C20.314 6.79416 20.1869 6.73446 20.0514 6.72571Z" fill="white"/>
<path d="M5.23431 8.73143V18.3314C5.23873 18.4714 5.29709 18.6043 5.39719 18.7023C5.4973 18.8002 5.63139 18.8557 5.77146 18.8571H8.91431C9.05581 18.8549 9.19085 18.7975 9.29065 18.6972C9.39045 18.5968 9.44713 18.4615 9.4486 18.32V8.73143C9.43871 8.59611 9.37798 8.46954 9.2786 8.37716C9.17922 8.28478 9.04857 8.23344 8.91289 8.23344C8.7772 8.23344 8.64655 8.28478 8.54717 8.37716C8.44779 8.46954 8.38706 8.59611 8.37717 8.73143V18.3314L8.91431 17.7971H5.77146L6.30574 18.3314V8.73143C6.29585 8.59611 6.23512 8.46954 6.13574 8.37716C6.03637 8.28478 5.90571 8.23344 5.77003 8.23344C5.63435 8.23344 5.50369 8.28478 5.40431 8.37716C5.30494 8.46954 5.2442 8.59611 5.23431 8.73143Z" fill="white"/>
<path d="M11.5428 8.73143V18.3314L12.0771 17.7971H8.93427C8.79895 17.807 8.67239 17.8678 8.58001 17.9671C8.48763 18.0665 8.43628 18.1972 8.43628 18.3329C8.43628 18.4685 8.48763 18.5992 8.58001 18.6986C8.67239 18.7979 8.79895 18.8587 8.93427 18.8686H12.0771C12.2191 18.8671 12.3549 18.81 12.4553 18.7096C12.5557 18.6092 12.6128 18.4734 12.6143 18.3314V8.73143C12.6044 8.59611 12.5437 8.46954 12.4443 8.37716C12.3449 8.28478 12.2142 8.23344 12.0786 8.23344C11.9429 8.23344 11.8122 8.28478 11.7128 8.37716C11.6135 8.46954 11.5527 8.59611 11.5428 8.73143Z" fill="white"/>
<path d="M14.6943 8.73143V18.3314L15.2314 17.7971H12.0886C11.9532 17.807 11.8267 17.8678 11.7343 17.9671C11.6419 18.0665 11.5906 18.1972 11.5906 18.3329C11.5906 18.4685 11.6419 18.5992 11.7343 18.6986C11.8267 18.7979 11.9532 18.8587 12.0886 18.8686H15.2314C15.3729 18.8663 15.508 18.8089 15.6078 18.7086C15.7076 18.6083 15.7642 18.4729 15.7657 18.3314V8.73143C15.7558 8.59611 15.6951 8.46954 15.5957 8.37716C15.4963 8.28478 15.3657 8.23344 15.23 8.23344C15.0943 8.23344 14.9637 8.28478 14.8643 8.37716C14.7649 8.46954 14.7042 8.59611 14.6943 8.73143Z" fill="white"/>
<path d="M17.8486 8.73143V18.3314L18.3829 17.7971H15.24C15.1047 17.807 14.9781 17.8678 14.8857 17.9671C14.7934 18.0665 14.742 18.1972 14.742 18.3329C14.742 18.4685 14.7934 18.5992 14.8857 18.6986C14.9781 18.7979 15.1047 18.8587 15.24 18.8686H18.3829C18.5249 18.8671 18.6606 18.81 18.761 18.7096C18.8614 18.6092 18.9185 18.4734 18.92 18.3314V8.73143C18.9101 8.59611 18.8494 8.46954 18.75 8.37716C18.6506 8.28478 18.52 8.23344 18.3843 8.23344C18.2486 8.23344 18.1179 8.28478 18.0186 8.37716C17.9192 8.46954 17.8585 8.59611 17.8486 8.73143Z" fill="white"/>
</svg>
